<?xml version="1.0" encoding="UTF-8" standalone="no"?>
<!-- Created with Inkscape (http://www.inkscape.org/) -->

<svg
   width="154.20288mm"
   height="38.970177mm"
   viewBox="0 0 154.20288 38.970177"
   version="1.1"
   id="svg1"
   inkscape:version="1.3.2 (091e20e, 2023-11-25, custom)"
   sodipodi:docname="logo.svg"
   xmlns:inkscape="http://www.inkscape.org/namespaces/inkscape"
   xmlns:sodipodi="http://sodipodi.sourceforge.net/DTD/sodipodi-0.dtd"
   xmlns="http://www.w3.org/2000/svg"
   xmlns:svg="http://www.w3.org/2000/svg">
  <sodipodi:namedview
     id="namedview1"
     pagecolor="#ffffff"
     bordercolor="#000000"
     borderopacity="0.25"
     inkscape:showpageshadow="2"
     inkscape:pageopacity="0.0"
     inkscape:pagecheckerboard="0"
     inkscape:deskcolor="#d1d1d1"
     inkscape:document-units="mm"
     inkscape:zoom="0.97890839"
     inkscape:cx="100.62229"
     inkscape:cy="209.92771"
     inkscape:window-width="1920"
     inkscape:window-height="991"
     inkscape:window-x="-9"
     inkscape:window-y="-9"
     inkscape:window-maximized="1"
     inkscape:current-layer="layer1" />
  <defs
     id="defs1" />
  <g
     inkscape:label="Layer 1"
     inkscape:groupmode="layer"
     id="layer1"
     transform="translate(-37.202519,-113.93225)">
    <g
       id="text1"
       style="font-size:55.7585px;font-family:Janitor;-inkscape-font-specification:Janitor;text-align:center;text-anchor:middle;stroke-width:0.224896;stroke-linecap:round;stroke-linejoin:round"
       transform="scale(0.99641093,1.003602)"
       aria-label="Carter's">
      <path
         style="font-family:'Freestyle Script';-inkscape-font-specification:'Freestyle Script';fill:#4ccd99"
         d="m 92.879977,114.09822 q 1.824131,0 2.804261,1.30684 0.789549,1.03458 0.789549,2.50478 0,2.6409 -1.769679,6.01691 -1.551872,2.91316 -3.866068,5.22736 -1.524646,1.49742 -2.395873,1.49742 -0.571742,0 -1.061807,-0.57175 -0.353936,-0.40838 -0.353936,-0.92567 0,-0.95291 1.660775,-2.17807 2.341422,-1.74245 3.729939,-3.81162 2.041937,-2.99484 2.041937,-5.064 0,-0.844 -0.381161,-1.25239 -0.353936,-0.40839 -1.089033,-0.40839 -1.497421,0 -4.24723,2.17807 -3.13097,2.45032 -6.615876,6.67033 -4.437811,5.36349 -6.752006,10.56362 -2.395873,5.39071 -2.395873,9.20233 0,1.82413 1.061807,3.10374 1.170711,1.44297 2.858712,1.44297 2.94039,0 7.405426,-4.57394 1.334066,-1.38851 3.239874,-4.02942 1.252388,-1.688 1.606324,-2.39587 0.408387,-0.78955 0.952904,-0.78955 0.598968,0 0.598968,0.57174 0,1.22516 -3.049293,5.49962 -2.532002,3.56658 -5.581295,5.82633 -3.430455,2.532 -6.479748,2.532 -3.185422,0 -4.927875,-2.85871 -1.116259,-1.82413 -1.116259,-4.16556 0,-5.88077 5.554069,-14.83807 4.737295,-7.62323 9.99188,-12.27885 4.546714,-4.0022 7.786587,-4.0022 z"
         id="path1" />
      <path
         style="font-family:'Freestyle Script';-inkscape-font-specification:'Freestyle Script'"
         d="m 99.659208,144.61838 q -0.898452,1.57909 -1.769679,2.66813 -1.715227,2.12361 -3.403229,2.12361 -1.470194,0 -2.286969,-1.38851 -0.517291,-0.89846 -0.517291,-2.12362 0,-3.02207 1.905808,-6.67033 2.123615,-4.05665 5.118456,-6.23471 1.960256,-1.41575 3.784386,-1.41575 1.14349,0 1.90581,0.70788 0.65342,0.62619 0.65342,1.41574 0,0.59897 -0.46284,1.66077 0.40839,0.57175 0.40839,1.00736 0,0.57174 -0.76232,1.87858 -0.78955,1.33407 -1.5791,3.53936 -0.844,2.34142 -0.844,3.75716 0,1.14349 0.68064,1.87859 0.19059,0.19058 1.11626,0.62619 0.68065,0.32671 0.68065,1.14349 0,0.51729 -0.38116,0.844 -0.40839,0.35393 -0.95291,0.35393 -1.47019,0 -2.532,-1.30684 -0.871225,-1.0618 -0.871225,-2.66813 0,-0.54452 0.108903,-1.7969 z m 3.403232,-8.9573 q -0.32671,-0.59897 -0.70787,-0.87123 -0.38117,-0.29948 -0.81678,-0.29948 -2.069163,0 -4.492262,3.62103 -2.668131,4.0022 -2.668131,6.77923 0,0.68065 0.245032,1.03459 0.272259,0.35393 0.78955,0.35393 1.306839,0 3.049292,-2.77703 0.98013,-1.52465 2.423099,-4.49226 0.9529,-1.93304 1.38852,-2.55923 0.2178,-0.32671 0.78955,-0.78955 z m 7.97717,4.49226 q 2.66813,-2.85871 6.15303,-5.58129 1.25239,-0.98013 2.66814,-1.82414 0.70787,-0.40838 0.89845,-0.40838 0.40838,0 0.81677,0.59897 0.24503,0.32671 0.24503,0.59896 0,0.49007 -1.03458,1.33407 -2.77703,2.20529 -2.77703,3.32155 0,0.62619 0.70787,0.62619 1.17071,0 4.02942,-1.93303 0.49007,-0.32671 0.81678,-0.32671 0.2178,0 0.43561,0.21781 0.24503,0.24503 0.24503,0.51729 0,0.81677 -2.28697,2.50477 -2.39587,1.79691 -4.54671,1.79691 -0.87123,0 -1.60632,-0.46284 -0.6262,-0.38116 -0.6262,-1.36129 0,-0.68065 0.57174,-1.55187 -2.15084,1.52464 -5.064,5.22736 -1.688,2.28697 -3.34878,5.63574 -0.62619,1.25239 -1.55187,1.25239 -1.00735,0 -1.00735,-0.9529 0,-0.92568 1.57909,-4.9551 2.34143,-5.98969 4.90065,-9.28401 1.5791,-2.04194 2.64091,-2.04194 0.35393,0 0.65342,0.21781 0.35393,0.27226 0.35393,0.68064 0,0.40839 -0.54451,1.14349 -0.10891,0.13613 -1.44297,1.82413 -1.22516,1.60632 -1.87858,3.18542 z m 22.05291,-8.57614 q -1.76967,2.74981 -3.2671,6.15304 -2.15084,4.8462 -2.15084,7.24207 0,0.68065 0.27226,1.03458 0.29949,0.35394 0.87123,0.35394 1.36129,0 3.29432,-2.55923 1.22517,-1.5791 2.17807,-3.15819 0.51729,-0.89846 1.11626,-0.89846 0.35394,0 0.59897,0.24504 0.2178,0.24503 0.2178,0.49006 0,1.00736 -2.6409,4.49226 -3.1582,4.19278 -5.77188,4.19278 -1.38851,0 -2.31419,-1.27961 -0.57174,-0.81678 -0.57174,-2.3142 0,-3.29433 1.9058,-7.67768 0.46284,-1.08904 2.55923,-5.25459 -0.7351,0.19058 -1.11626,0.19058 -0.57174,0 -1.00735,-0.27226 -0.59897,-0.38116 -0.59897,-0.9529 0,-0.68065 0.78955,-1.08903 0.2178,-0.10891 2.01471,-0.35394 0.65342,-0.1089 1.90581,-0.51729 0.9529,-1.71523 3.10374,-4.65562 1.19794,-1.63355 1.66078,-2.12361 0.65342,-0.68065 1.14348,-0.68065 0.35394,0 0.70787,0.38116 0.32671,0.35394 0.32671,0.70788 0,0.70787 -1.52464,2.80426 -1.00736,1.36129 -1.49742,2.20529 3.02206,-0.81678 4.3289,-0.81678 1.49742,0 1.49742,1.25239 0,0.6262 -0.51729,0.92568 -0.27225,0.16335 -1.41574,0.27226 -0.46284,-0.0272 -4.1111,1.03458 -1.00736,0.29948 -1.98749,0.62619 z m 5.77188,12.30608 v 0.49006 q 0,0.59897 0.29948,1.03459 0.68065,1.00735 2.23252,1.00735 3.40323,0 7.86827,-5.22736 0.78955,-0.89845 1.33406,-0.89845 0.29949,0 0.54452,0.29948 0.16335,0.21781 0.16335,0.40839 0,1.06181 -2.61367,3.59381 -2.04194,1.98749 -4.35614,3.23987 -2.31419,1.25239 -4.30168,1.25239 -2.04194,0 -3.21265,-1.41574 -0.78955,-0.98013 -0.78955,-2.66813 0,-4.60117 4.32891,-9.01175 3.51213,-3.59381 6.12581,-3.59381 0.70787,0 1.27962,0.43561 0.70787,0.57174 0.70787,1.49742 0,1.44297 -1.33407,3.53936 -2.74981,4.35613 -8.27665,6.01691 z m 0.59897,-2.12362 q 1.90581,-0.65342 2.99484,-1.47019 1.90581,-1.4702 3.02207,-3.32155 0.40838,-0.65342 0.40838,-1.17071 0,-0.54452 -0.51729,-0.54452 -0.70787,0 -2.01471,1.06181 -2.34142,1.87858 -3.89329,5.44516 z m 17.53344,-1.60632 q 2.66813,-2.85871 6.15303,-5.58129 1.25239,-0.98013 2.66813,-1.82414 0.70788,-0.40838 0.89846,-0.40838 0.40838,0 0.81677,0.59897 0.24503,0.32671 0.24503,0.59896 0,0.49007 -1.03458,1.33407 -2.77703,2.20529 -2.77703,3.32155 0,0.62619 0.70787,0.62619 1.17071,0 4.02942,-1.93303 0.49007,-0.32671 0.81678,-0.32671 0.2178,0 0.43561,0.21781 0.24503,0.24503 0.24503,0.51729 0,0.81677 -2.28697,2.50477 -2.39587,1.79691 -4.54671,1.79691 -0.87123,0 -1.60632,-0.46284 -0.6262,-0.38116 -0.6262,-1.36129 0,-0.68065 0.57174,-1.55187 -2.15084,1.52464 -5.064,5.22736 -1.688,2.28697 -3.34878,5.63574 -0.62619,1.25239 -1.55187,1.25239 -1.00736,0 -1.00736,-0.9529 0,-0.92568 1.5791,-4.9551 2.34142,-5.98969 4.90065,-9.28401 1.5791,-2.04194 2.64091,-2.04194 0.35393,0 0.65342,0.21781 0.35393,0.27226 0.35393,0.68064 0,0.40839 -0.54451,1.14349 -0.10891,0.13613 -1.44297,1.82413 -1.22516,1.60632 -1.87858,3.18542 z m 28.96827,-26.51796 q 0.38117,0 0.68065,0.21781 0.46284,0.35393 0.46284,0.9529 0,1.17071 -3.23987,7.3782 -1.14349,2.17807 -1.74246,2.66813 -0.43561,0.35394 -0.844,0.35394 -0.9529,0 -0.9529,-1.27961 0,-0.78955 0.98013,-2.66814 2.36864,-4.84619 2.55923,-5.36348 0.87122,-2.25975 2.09638,-2.25975 z m 2.64091,17.39731 q 1.68801,0 2.53201,0.59897 0.844,0.59896 0.844,1.82413 0,1.60632 -1.19794,3.10374 -1.14348,1.41574 -3.43045,2.28697 -1.25239,0.46284 -2.09639,0.46284 -1.14349,0 -1.14349,-1.00736 0,-0.68064 0.65342,-1.03458 0.16336,-0.0817 1.85136,-0.46284 1.00735,-0.2178 1.85136,-0.9529 0.73509,-0.62619 0.73509,-1.36129 0,-0.57174 -0.32671,-0.844 -0.32671,-0.27226 -0.98013,-0.27226 -1.57909,0 -3.4849,1.27961 -2.2053,1.44297 -2.2053,3.43046 0,1.41574 1.44297,3.53936 1.60633,2.31419 1.60633,3.92051 0,2.39588 -2.12362,3.75717 -1.30684,0.844 -2.96761,0.844 -2.61368,0 -3.97497,-1.87858 -0.95291,-1.33407 -0.95291,-3.1582 0,-2.12361 1.08904,-3.56658 0.70787,-0.95291 1.47019,-0.95291 0.68065,0 0.68065,0.54452 0,0.21781 -0.24504,0.65342 -0.62619,1.17071 -0.62619,2.74981 0,1.33406 0.9529,2.25974 0.844,0.81678 1.93304,0.81678 1.0618,0 1.66077,-0.70787 0.49007,-0.59897 0.49007,-1.52465 0,-1.14349 -1.30684,-2.96762 -1.79691,-2.50477 -1.79691,-4.54671 0,-2.72258 2.96762,-4.81897 2.88594,-2.01471 6.09858,-2.01471 z"
         id="path2" />
    </g>
    <path
       style="color:#000000;fill:#4ccd99;stroke-linecap:round;stroke-linejoin:round;-inkscape-stroke:none"
       d="m 56.207265,116.94373 c -5.190198,-0.18361 -10.460165,0.45774 -13.349609,4.04688 -4.287837,5.32617 -1.964121,14.47187 -0.707032,16.89304 0.101856,0.19618 0.417363,0.29854 0.704332,0.22886 0.286926,-0.0697 0.436752,-0.28514 0.334927,-0.48128 -1.191097,-2.29439 -1.920108,-10.01158 1.613085,-14.87695 1.963328,-2.70359 6.475346,-3.35863 11.3125,-3.1875 9.674309,0.34226 20.894416,3.07016 21.082031,3.14982 0.21903,0.093 0.465391,-0.026 0.550548,-0.26609 0.08526,-0.24039 -0.0234,-0.51104 -0.242647,-0.60443 -0.19974,-0.0851 -10.917739,-4.53511 -21.298135,-4.90235 z"
       id="path4"
       sodipodi:nodetypes="sssssssssss" />
    <path
       style="color:#000000;fill:#4ccd99;stroke-linecap:round;stroke-linejoin:round;-inkscape-stroke:none"
       d="m 38.148437,141.58398 c -0.705582,0.16507 -1.094856,0.93113 -0.892578,1.62696 0.202422,0.69632 0.930642,1.09699 1.626953,0.89453 0.594273,-0.17279 6.033452,-2.66758 14.020487,-2.75184 12.840261,-0.13548 14.448341,2.89971 15.002951,2.11707 0.818756,-1.15539 -4.419346,-2.85352 -14.911817,-3.49414 -3.83868,-0.23437 -8.208035,0.0545 -14.845996,1.60742 z"
       id="path5"
       sodipodi:nodetypes="sssssss" />
    <path
       id="path6"
       style="fill:#4ccd99;stroke-width:2.625;stroke-linecap:round;stroke-linejoin:round"
       d="m 47.50963,147.83109 a 1.8156372,1.8156372 0 0 1 -1.815637,1.81563 1.8156372,1.8156372 0 0 1 -1.815638,-1.81563 1.8156372,1.8156372 0 0 1 1.815638,-1.81564 1.8156372,1.8156372 0 0 1 1.815637,1.81564 z" />
    <path
       id="circle6"
       style="fill:#4ccd99;stroke-width:2.625;stroke-linecap:round;stroke-linejoin:round"
       d="m 65.824358,147.92664 a 1.8156372,1.8156372 0 0 1 -1.815638,1.81563 1.8156372,1.8156372 0 0 1 -1.815637,-1.81563 1.8156372,1.8156372 0 0 1 1.815637,-1.81564 1.8156372,1.8156372 0 0 1 1.815638,1.81564 z" />
  </g>
</svg>
