<?xml version="1.0" encoding="UTF-8" standalone="no"?>
<!-- Created with Inkscape (http://www.inkscape.org/) -->

<svg
   width="50.98769mm"
   height="52.214458mm"
   viewBox="0 0 50.98769 52.214458"
   version="1.1"
   id="svg1"
   xml:space="preserve"
   inkscape:version="1.3.2 (091e20e, 2023-11-25, custom)"
   sodipodi:docname="x.svg"
   xmlns:inkscape="http://www.inkscape.org/namespaces/inkscape"
   xmlns:sodipodi="http://sodipodi.sourceforge.net/DTD/sodipodi-0.dtd"
   xmlns="http://www.w3.org/2000/svg"
   xmlns:svg="http://www.w3.org/2000/svg"><sodipodi:namedview
     id="namedview1"
     pagecolor="#ffffff"
     bordercolor="#000000"
     borderopacity="0.25"
     inkscape:showpageshadow="2"
     inkscape:pageopacity="0.0"
     inkscape:pagecheckerboard="0"
     inkscape:deskcolor="#d1d1d1"
     inkscape:document-units="mm"
     inkscape:zoom="1.3843855"
     inkscape:cx="409.20682"
     inkscape:cy="540.67309"
     inkscape:window-width="1920"
     inkscape:window-height="991"
     inkscape:window-x="-9"
     inkscape:window-y="-9"
     inkscape:window-maximized="1"
     inkscape:current-layer="layer1" /><defs
     id="defs1" /><g
     inkscape:label="Layer 1"
     inkscape:groupmode="layer"
     id="layer1"
     transform="translate(-85.7325,-118.66494)"><path
       style="fill:#000000"
       d="m 85.732505,170.85303 c 0,-0.0144 0.923186,-1.1 2.051524,-2.41252 3.613681,-4.20354 6.134399,-7.13496 7.629885,-8.87302 0.801455,-0.93145 2.297762,-2.67134 3.325126,-3.86641 1.027363,-1.19508 2.99307,-3.48137 4.36825,-5.08066 1.48475,-1.72673 2.48697,-2.94341 2.46746,-2.99548 -0.0247,-0.0658 -5.931146,-8.69861 -7.22025,-10.55295 -0.109958,-0.15817 -0.474957,-0.6902 -0.811108,-1.18229 -0.336152,-0.49209 -0.957932,-1.39798 -1.381734,-2.01309 -0.423802,-0.61511 -1.027086,-1.49224 -1.340631,-1.94918 -0.313544,-0.45694 -2.466482,-3.59161 -4.784306,-6.96594 -2.317823,-3.37432 -4.23617,-6.17108 -4.262992,-6.21502 -0.03891,-0.0637 1.487775,-0.0799 7.550967,-0.0799 h 7.599734 l 0.22647,0.33552 c 0.12455,0.18453 0.45352,0.66623 0.73103,1.07045 0.27752,0.40421 1.86712,2.71927 3.53246,5.14456 1.66534,2.4253 4.29164,6.25017 5.83623,8.49972 1.54459,2.24955 2.81603,4.09884 2.82543,4.10954 0.009,0.0107 0.96199,-1.08213 2.11686,-2.42849 1.15488,-1.34637 2.18961,-2.54859 2.29941,-2.67162 0.1098,-0.12302 0.85366,-0.98577 1.65303,-1.91723 0.79937,-0.93145 2.2938,-2.67134 3.32097,-3.86641 1.02716,-1.19507 2.95437,-3.43823 4.2827,-4.9848 1.32832,-1.54656 2.51248,-2.92014 2.63147,-3.0524 l 0.21633,-0.24047 2.22754,0.0168 2.22754,0.0168 -0.77421,0.90033 c -0.42582,0.49518 -1.62467,1.88996 -2.66412,3.09952 -1.03944,1.20956 -2.60775,3.03319 -3.48512,4.05252 -0.87737,1.01933 -2.39879,2.78797 -3.38093,3.93032 -0.98215,1.14235 -2.20615,2.56589 -2.72002,3.16343 -1.80782,2.10219 -4.18211,4.86659 -4.94,5.75169 -0.42137,0.49209 -0.81895,0.95456 -0.88351,1.02772 -0.11601,0.13146 -0.0837,0.18205 2.75183,4.31377 1.57806,2.29941 3.01869,4.39644 3.2014,4.66006 0.18271,0.26361 0.85508,1.2414 1.49415,2.17286 0.63908,0.93145 1.37978,2.00989 1.646,2.39653 0.26622,0.38664 1.33291,1.9396 2.37042,3.45102 1.03751,1.51141 2.75562,4.0134 3.81801,5.55996 1.06239,1.54657 2.2817,3.32337 2.70958,3.94845 0.42789,0.62508 0.93614,1.36305 1.12946,1.63993 0.56407,0.80786 1.37218,2.00015 1.39532,2.05865 0.0117,0.0296 -3.39616,0.0528 -7.57306,0.0515 l -7.59435,-0.002 -0.47931,-0.70999 c -0.26362,-0.3905 -1.22703,-1.79845 -2.14091,-3.12878 -0.91388,-1.33032 -2.16487,-3.15257 -2.77998,-4.04944 -0.61511,-0.89686 -1.938,-2.82284 -2.93975,-4.27996 -1.00176,-1.45711 -2.65048,-3.85789 -3.66383,-5.33506 -1.01335,-1.47718 -1.86575,-2.70017 -1.89423,-2.71777 -0.0285,-0.0176 -0.89612,0.95079 -1.92809,2.15198 -1.03198,1.20119 -2.5101,2.91925 -3.28471,3.81791 -1.31646,1.52731 -3.489467,4.05533 -8.106291,9.43068 -2.5128,2.92564 -2.969764,3.45648 -3.617122,4.20192 l -0.541113,0.6231 h -2.222455 c -1.22235,0 -2.222454,-0.0118 -2.222454,-0.0261 z m 44.815575,-3.31306 c -0.0578,-0.073 -5.2779,-7.54073 -9.81685,-14.04371 -1.01814,-1.45869 -2.77618,-3.97505 -3.90676,-5.59192 -2.39734,-3.42849 -6.77675,-9.69671 -7.98278,-11.4257 -0.46055,-0.66026 -1.18446,-1.69556 -1.60869,-2.30067 -0.42423,-0.60511 -2.50447,-3.58062 -4.62276,-6.61224 L 98.7588,122.0537 h -3.45293 -3.452931 l 0.112841,0.17574 c 0.06206,0.0967 0.435017,0.63588 0.828789,1.19827 0.393772,0.56239 1.549116,2.216 2.56743,3.67469 1.864651,2.67103 3.352121,4.80031 7.210111,10.32109 1.15445,1.65201 2.6312,3.76576 3.28167,4.69721 1.54434,2.21144 4.3238,6.189 6.9443,9.93764 3.53312,5.05413 5.78157,8.27206 6.32202,9.04791 0.28348,0.40695 1.42131,2.0382 2.52851,3.625 l 2.01309,2.88509 3.47481,0.002 c 2.77117,0.001 3.46201,-0.0144 3.41157,-0.0781 z"
       id="path1"
       inkscape:export-filename="..\..\..\..\..\Users\D\path1.png"
       inkscape:export-xdpi="96"
       inkscape:export-ydpi="96" /></g></svg>
